<mxfile host="app.diagrams.net" modified="2024-03-12T05:34:53.199Z" agent="Mozilla/5.0 (Windows NT 10.0; Win64; x64) AppleWebKit/537.36 (KHTML, like Gecko) Chrome/122.0.0.0 Safari/537.36" version="24.0.4" etag="KrjlcXsAxVX6xbP07B0q" type="github">
  <diagram name="第 1 页" id="fX3t68Yyml-smOMEu2DY">
    <mxGraphModel>
      <root>
        <mxCell id="0" />
        <mxCell id="1" parent="0" />
      </root>
    </mxGraphModel>
  </diagram>
</mxfile>
